<svg xmlns="http://www.w3.org/2000/svg" style="display: none;">
    <symbol id="icon-calculator" viewBox="0 0 512 512">
      <path d="m141 511c-21-5-38-20-45-40-3-10-3 7-3-211 0-141 0-201 0-205 3-24 19-44 41-52 10-3 8-3 122-3 67 0 107 0 110 1 29 4 50 26 53 54 0 9 0 394 0 402-1 8-3 14-6 21-8 16-21 27-38 32l-5 2-113 0c-93 0-112 0-116-1z m36-86c7-1 12-7 14-13 2-5 2-8 0-13-2-9-10-15-20-15-8 0-14 4-18 12-2 4-2 5-2 9 0 4 0 6 1 8 3 7 8 11 15 13 3 1 5 1 10-1z m57-1c4-2 8-5 10-9 2-3 2-4 2-10 0-5 0-6-2-9-2-5-6-8-10-10-5-3-12-2-17 0-5 2-8 6-10 10-2 3-2 4-2 9 0 5 0 6 2 9 5 11 17 15 27 10z m54 0c5-2 8-6 10-11 2-2 2-4 2-8 0-4 0-5-2-9-6-13-23-16-33-6-5 5-8 14-6 21 1 4 2 6 5 8 6 7 16 9 24 5z m54 0c12-6 16-22 7-32-4-5-12-9-18-8-7 1-14 6-17 12-1 3-1 4-1 9 0 5 0 7 1 9 3 6 9 10 14 12 4 1 10 0 14-2z m-162-53c5-2 8-5 10-10 2-4 2-5 2-9 0-5 0-6-1-9-3-4-6-8-11-10-3-2-4-2-9-2-6 0-10 2-15 7-5 5-6 12-5 19 2 7 8 13 15 15 3 1 11 1 14-1z m55 0c4-3 8-7 10-12 2-4 1-12-1-16-1-4-5-8-10-10-3-2-4-2-9-2-6 0-10 2-14 6-5 4-6 8-6 15 0 5 0 6 2 9 2 4 7 9 11 10 5 2 12 2 17 0z m53 0c4-2 8-6 10-10 2-3 2-5 2-9 0-6-2-10-6-14-4-5-8-7-15-7-4 0-5 0-8 2-5 2-8 5-11 10-1 3-1 4-1 9 0 5 1 9 4 13 2 3 6 6 9 7 4 1 12 1 16-1z m53 0c4-1 9-5 11-10 1-3 2-4 2-9 0-7-2-11-6-15-5-4-8-6-15-6-5 0-6 0-9 2-4 2-8 7-10 11-2 5-2 13 0 17 3 5 8 10 13 11 4 1 10 1 14-1z m-161-53c4-2 9-7 11-11 2-5 2-12 0-17-7-13-24-17-34-6-12 11-6 31 10 35 3 1 10 0 13-1z m55-1c7-3 10-9 11-17 0-7-1-11-6-16-8-9-21-9-30 0-4 5-5 9-5 16 0 9 6 16 15 19 4 1 10 1 15-2z m52 1c2-1 5-3 6-4 9-8 9-21 2-30-5-5-13-7-19-6-7 1-13 5-16 12-2 5-2 12 0 17 2 3 6 8 9 10 5 3 13 3 18 1z m55 0c4-2 8-6 10-10 1-3 2-4 2-9 0-7-2-10-6-15-10-10-27-8-33 5-3 4-3 12-2 17 3 6 8 11 15 13 3 1 10 1 14-1z m-166-52c6-1 12-6 15-12 2-5 2-12 0-17-2-4-7-9-11-11-3-1-4-1-9-1-6 0-9 1-13 5-6 5-8 12-7 19 1 5 3 8 6 11 4 4 11 7 15 6 1 0 3 0 4 0z m58-2c5-2 9-6 11-11 1-3 1-5 1-9-1-8-4-14-12-17-3-2-4-2-9-2-8 0-14 3-18 10-2 4-2 5-2 9 0 7 1 11 5 15 6 7 15 9 24 5z m53 1c5-2 9-6 11-10 2-4 2-5 2-9 0-7-2-12-7-16-4-4-7-5-14-5-6 0-9 1-14 5-4 4-6 9-6 15 0 5 0 6 1 9 5 11 16 15 27 11z m55-1c4-1 8-6 10-10 1-2 2-4 2-9 0-5-1-6-3-10-3-7-10-10-18-10-4 0-5 0-8 1-5 3-9 7-11 12-2 5-2 12 1 17 5 10 16 14 27 9z m37-82c1-1 1-2 1-52 0-44 0-50-1-51l-1-1-245 0-1 1c-1 2-1 5-1 49 0 26 0 48 0 50 0 1 1 3 2 4 1 1 3 1 123 1 121 0 122 0 123-1z"/>
    </symbol>
    <symbol id="icon-card" viewBox="0 0 512 512">
      <path d="m106 511c-13-4-23-14-27-28-2-3-2-12-2-226 0-186 1-224 1-227 2-9 9-18 17-23 2-2 6-4 9-5l6-2 144 0c160 0 150 0 159 4 9 5 17 13 21 24 0 3 1 21 1 226 0 221 0 224-1 229-4 13-15 24-29 28-3 1-22 1-149 1-136 0-146 0-150-1z m299-93c11-6 11-21 0-27-6-3-13-2-18 2-4 4-6 10-4 16 2 9 13 14 22 9z m-72-26l0-3-202 0 0 7 202 0z m0-29l0-3-202 0 0 7 202 0z m72-3c9-5 11-17 4-24-5-5-13-6-19-3-6 3-9 10-8 15 1 5 4 9 7 11 2 1 4 2 5 3 3 0 8 0 11-2z m-72-26l0-3-202 0 0 7 202 0z m0-29l0-3-202 0 0 7 202 0z m72-3c11-6 11-21 0-27-9-5-20 0-22 9-1 2-1 4-1 4 0 1 0 3 1 5 2 9 13 13 22 9z m-72-26l0-3-202 0 0 7 202 0z m0-28l0-4-202 0 0 7 202 0z m72-4c5-3 8-8 8-14 0-13-16-20-26-11-4 4-6 10-5 15 3 10 14 15 23 10z m-72-25l0-4-202 0 0 7 202 0z m0-29l0-4-202 0 0 7 202 0z m71-4c7-3 10-10 9-17-1-7-8-12-15-12-15 0-22 18-11 27 5 4 12 5 17 2z m-71-25l0-4-202 0 0 7 202 0z m0-29l0-4-202 0 0 7 202 0z m69-3c4-1 7-4 9-8 9-15-12-30-25-18-3 4-5 10-4 15 2 8 11 13 20 11z"/>
    </symbol>
    <symbol id="icon-dollar" viewBox="0 0 512 512">
      <path d="m228 512c-5-2-8-4-10-8-1-3-1-4-1-28l0-26-7-1c-33-8-64-26-82-47-17-20-26-43-26-68 0-9 0-12 3-15 4-3 3-3 42-3 40 0 40 0 44 4 2 3 3 6 4 13 1 9 6 17 13 25 8 8 19 13 35 15 9 2 31 2 40 1 19-4 30-11 34-25 2-4 2-5 2-12 0-8 0-8-2-11-2-5-5-8-10-12-9-6-18-9-51-17-35-8-60-16-82-26-25-12-43-27-54-45-11-19-15-45-12-70 3-22 13-41 29-56 17-18 43-31 73-38l7-1 0-25c0-17 0-26 1-27 1-4 4-7 9-8 1-1 9-1 30-1 25 0 28 0 30 1 3 1 6 3 7 6l1 2 0 27 1 27 8 2c61 15 96 52 96 100 0 10 0 13-3 15-1 1-2 2-4 2-1 1-12 1-36 1l-34 0-2-1c-3-2-6-5-8-10-3-10-6-14-11-20-7-6-13-9-22-12-7-3-15-4-23-5-26-1-47 7-54 22-2 4-3 4-3 10 0 4 0 6 1 8 3 9 12 17 28 25 13 6 24 10 52 18 23 6 48 14 60 19 36 14 57 35 65 64 3 12 4 17 4 33 0 15-1 21-4 33-7 29-27 53-56 68-14 7-31 13-47 15-3 1-6 1-6 1l-2 1 0 24c0 28 0 28-3 32-4 4-4 4-34 4-20 0-28 0-30 0z"/>
    </symbol>
    <symbol id="icon-info" viewBox="0 0 512 512">
      <path d="m165 512l-16-1 0-15c0-8 0-15 0-15 1 0 7-1 15-1 15 0 18-1 24-4 5-2 8-5 10-10l2-3 0-234-2-3c-1-4-6-8-11-10-6-3-10-4-25-4l-13-1 0-32 37 0c21 0 57 0 82 1l44 0 0 142 0 141 2 4c3 5 9 10 17 12 5 1 15 2 24 2l8 0 0 31-91 0c-50 0-98 0-107 0z m79-371c-25-1-48-16-59-39-13-25-9-57 10-78 18-20 47-29 73-21 3 0 8 2 11 4 37 18 51 63 31 99-9 16-26 28-44 33-5 1-17 3-19 3 0 0-2 0-3-1z"/>
    </symbol>
</svg>
